<svg width="163" height="204" viewBox="0 0 163 204" fill="none" xmlns="http://www.w3.org/2000/svg">
<path fill-rule="evenodd" clip-rule="evenodd" d="M35.2122 129.204C37.9516 104.31 32.1395 79.4168 13.8419 68.4781L28.0487 46.0279C60.4793 65.4156 67.3388 102.52 64.0584 132.331C62.3783 147.599 57.9823 162.343 51.87 174.266C46.1205 185.482 37.9266 194.722 25.9409 199.159L15.2656 174.462C13.6571 174.459 14.8901 171.332 23.5814 162.966C27.9784 154.389 33.8823 141.289 35.2122 129.204Z" fill="#1565C0"/>
<path fill-rule="evenodd" clip-rule="evenodd" d="M57.8897 136.253C60.4805 114.98 60.5525 92.6834 54.8833 77.5892L73.8549 70.4637C81.3415 90.3967 80.6676 116.854 78.0066 138.703C75.3201 160.761 70.2964 180.405 67.4508 187.708L48.5681 180.35C50.5904 175.16 55.3244 157.316 57.8897 136.253Z" fill="#F3C223"/>
<path fill-rule="evenodd" clip-rule="evenodd" d="M72.7249 161.073C79.5828 160.411 80.2778 161.732 85.7753 160.59L93.6204 193.097C83.2248 195.258 72.9184 195.136 64.583 194.711C60.88 194.523 57.8287 194.307 55.1725 194.119C52.1887 193.908 49.7033 193.733 47.3526 193.67C47.4095 193.878 47.4699 194.093 47.5342 194.315L14.7547 200.283C11.9978 190.749 8.38585 181.014 16.4857 171.174C24.6249 161.287 37.4545 160.463 43.8653 160.349C48.7032 160.263 54.8608 160.684 60.2437 161.051C62.5363 161.208 70.8752 160.979 72.7249 161.073ZM46.4621 188.512C46.4621 188.512 46.4616 188.523 46.459 188.543C46.4605 188.522 46.4621 188.512 46.4621 188.512ZM41.5689 193.881C41.4552 193.916 41.3905 193.929 41.3865 193.926C41.3825 193.924 41.4394 193.906 41.5689 193.881Z" fill="#1565C0"/>
<path fill-rule="evenodd" clip-rule="evenodd" d="M77.9422 58.8836C77.997 58.8753 78.0016 58.8746 77.9582 58.8863L82.1339 57.7683L86.3692 58.6332C134.32 68.426 164.86 96.4758 161.935 132.39C159.154 166.528 126.715 191.621 84.838 196.952L80.2062 160.575C112.704 156.437 124.565 139.476 125.385 129.413C126.041 121.36 120.288 101.758 82.0645 97.5482C78.5504 97.1611 68.1832 95.6717 61.0928 94.4549C51.5929 92.8246 40.5822 89.4302 30.4928 83.3866C20.3324 77.3004 10.4411 68.0949 4.83549 54.7718C-0.84747 41.2651 -1.25855 25.5833 3.98603 8.31031L39.0753 18.9644C35.8271 29.6624 36.8722 36.3567 38.6365 40.5501C40.4782 44.9273 44.0255 48.7461 49.3369 51.9276C54.7196 55.1519 61.2142 57.2686 67.2953 58.3122C70.2839 58.8251 72.9311 59.0363 75.0069 59.0471C76.7968 59.0565 77.7335 58.9151 77.9422 58.8836Z" fill="#1565C0"/>
<path d="M1.76147 5.60332C1.72755 25.0546 9.05987 47.4583 22.1569 61.2351C35.2533 75.0124 53.0359 82.7707 71.5915 82.803C90.147 82.8354 107.956 75.1392 121.101 61.4082C134.246 47.6766 141.529 25.2984 141.563 5.84711C118.726 1.98648 103.101 -0.69582 68.4338 0.386526C33.767 1.46887 27.5052 1.21408 1.76147 5.60332Z" fill="#F3C223"/>
<path d="M114.325 203.428C114.339 195.749 109.014 188.376 99.5216 182.93C90.03 177.485 77.1485 174.412 63.7118 174.388C50.275 174.365 37.383 177.393 27.8722 182.805C18.3614 188.218 13.0108 195.573 12.9974 203.251L63.6613 203.339L114.325 203.428Z" fill="#F3C223"/>
<path d="M76.911 163.441L84.531 162.692L86.7907 177.552L76.8904 175.249L76.911 163.441Z" fill="#1565C0"/>
<path d="M28.5399 159.166L52.1636 155.779L50.2417 165.679L20.9007 170.961L25.1002 165.636L28.5399 159.166Z" fill="#1565C0"/>
<path d="M26.3979 76.8806L56.0887 89.5032L56.455 97.8843L35.5111 93.6576L31.3381 83.746L26.3979 76.8806Z" fill="#1565C0"/>
</svg>
