<svg width="374" height="455" viewBox="0 0 374 455" fill="none" xmlns="http://www.w3.org/2000/svg">
<g filter="url(#filter0_d_285_59)">
<path fill-rule="evenodd" clip-rule="evenodd" d="M113.7 277.746C119.122 228.47 107.618 179.197 71.3995 157.545L99.5204 113.107C163.714 151.483 177.291 224.928 170.798 283.936C167.473 314.157 158.771 343.342 146.672 366.942C135.292 389.142 119.073 407.433 95.3481 416.216L74.2175 367.329C71.0337 367.324 73.4743 361.134 90.6778 344.576C99.3813 327.598 111.067 301.668 113.7 277.746Z" fill="#1565C0"/>
<path fill-rule="evenodd" clip-rule="evenodd" d="M158.587 291.699C163.716 249.592 163.858 205.457 152.637 175.58L190.189 161.476C205.008 200.931 203.674 253.301 198.407 296.548C193.089 340.21 183.145 379.093 177.513 393.548L140.136 378.984C144.139 368.711 153.51 333.39 158.587 291.699Z" fill="#F3C223"/>
<path fill-rule="evenodd" clip-rule="evenodd" d="M187.953 340.828C201.527 339.518 202.903 342.133 213.785 339.871L229.313 404.216C208.736 408.493 188.336 408.251 171.836 407.411C164.507 407.038 158.467 406.611 153.209 406.24C147.303 405.822 142.384 405.475 137.731 405.351C137.843 405.762 137.963 406.187 138.09 406.627L73.2062 418.439C67.7494 399.568 60.5998 380.298 76.6326 360.822C92.7434 341.251 118.138 339.621 130.828 339.395C140.404 339.224 152.592 340.057 163.247 340.785C167.785 341.095 184.291 340.642 187.953 340.828ZM135.968 395.141C135.968 395.141 135.967 395.162 135.962 395.203C135.965 395.16 135.968 395.141 135.968 395.141ZM126.282 405.769C126.057 405.837 125.929 405.862 125.921 405.857C125.914 405.852 126.026 405.818 126.282 405.769Z" fill="#1565C0"/>
<path fill-rule="evenodd" clip-rule="evenodd" d="M198.279 138.554C198.388 138.538 198.397 138.536 198.311 138.559L206.576 136.346L214.959 138.058C309.873 157.442 370.325 212.964 364.534 284.053C359.029 351.625 294.82 401.293 211.929 411.848L202.76 339.842C267.086 331.652 290.564 298.079 292.187 278.159C293.485 262.22 282.097 223.42 206.439 215.087C199.483 214.32 178.962 211.372 164.927 208.964C146.123 205.737 124.329 199.018 104.358 187.055C84.2461 175.008 64.6674 156.787 53.5715 130.415C42.3227 103.68 41.509 72.6393 51.8901 38.4491L121.346 59.5378C114.916 80.7135 116.985 93.9642 120.477 102.265C124.123 110.929 131.144 118.488 141.658 124.785C152.312 131.167 165.168 135.357 177.205 137.423C183.12 138.438 188.36 138.856 192.469 138.878C196.012 138.896 197.866 138.616 198.279 138.554Z" fill="#1565C0"/>
<path d="M47.4874 33.0909C47.4202 71.5929 61.9338 115.939 87.8581 143.208C113.781 170.479 148.98 185.836 185.709 185.9C222.438 185.964 257.69 170.73 283.709 143.551C309.728 116.371 324.144 72.0754 324.211 33.5735C279.006 25.9317 248.078 20.6224 179.459 22.7648C110.839 24.9072 98.4446 24.4028 47.4874 33.0909Z" fill="#F3C223"/>
<path d="M270.296 424.664C270.322 409.466 259.782 394.872 240.993 384.092C222.206 373.313 196.708 367.231 170.111 367.184C143.515 367.138 117.996 373.131 99.1704 383.845C80.3448 394.559 69.7537 409.116 69.7272 424.315L170.011 424.489L270.296 424.664Z" fill="#F3C223"/>
<path d="M196.238 345.514L211.321 344.032L215.793 373.447L196.197 368.889L196.238 345.514Z" fill="#1565C0"/>
<path d="M100.492 337.053L147.253 330.348L143.449 349.946L85.3712 360.401L93.6838 349.859L100.492 337.053Z" fill="#1565C0"/>
<path d="M96.2524 174.177L155.022 199.162L155.747 215.752L114.291 207.386L106.031 187.767L96.2524 174.177Z" fill="#1565C0"/>
</g>
<defs>
<filter id="filter0_d_285_59" x="0.492773" y="0.186377" width="372.523" height="454.578" filterUnits="userSpaceOnUse" color-interpolation-filters="sRGB">
<feFlood flood-opacity="0" result="BackgroundImageFix"/>
<feColorMatrix in="SourceAlpha" type="matrix" values="0 0 0 0 0 0 0 0 0 0 0 0 0 0 0 0 0 0 127 0" result="hardAlpha"/>
<feOffset dx="-18" dy="4"/>
<feGaussianBlur stdDeviation="13.05"/>
<feComposite in2="hardAlpha" operator="out"/>
<feColorMatrix type="matrix" values="0 0 0 0 0 0 0 0 0 0 0 0 0 0 0 0 0 0 0.37 0"/>
<feBlend mode="normal" in2="BackgroundImageFix" result="effect1_dropShadow_285_59"/>
<feBlend mode="normal" in="SourceGraphic" in2="effect1_dropShadow_285_59" result="shape"/>
</filter>
</defs>
</svg>
