<svg width="65" height="44" viewBox="0 0 65 44" fill="none" xmlns="http://www.w3.org/2000/svg">
<path d="M16.336 43.288C13.232 43.288 10.48 42.68 8.08 41.464C5.68 40.28 3.792 38.648 2.416 36.568C1.072 34.456 0.4 32.072 0.4 29.416C0.4 27.752 0.688 26.04 1.264 24.28C1.584 23.352 2.048 22.536 2.656 21.832C3.264 21.128 3.904 20.552 4.576 20.104C5.248 19.656 5.824 19.368 6.304 19.24C6.656 19.144 6.88 19.096 6.976 19.096C7.2 19.096 7.12 19.256 6.736 19.576C6.384 19.864 5.936 20.184 5.392 20.536C4.784 20.952 4.08 21.576 3.28 22.408C2.48 23.24 1.936 24.472 1.648 26.104C1.584 26.488 1.536 26.872 1.504 27.256C1.472 27.64 1.456 28.008 1.456 28.36C1.456 30.44 1.92 32.28 2.848 33.88C3.808 35.448 5.04 36.76 6.544 37.816C8.048 38.872 9.68 39.672 11.44 40.216C13.232 40.76 14.944 41.032 16.576 41.032C19.168 41.032 21.568 40.52 23.776 39.496C25.984 38.504 28 37.128 29.824 35.368C31.68 33.608 33.344 31.592 34.816 29.32C36.288 27.016 37.584 24.584 38.704 22.024C38.448 22.024 38.08 22.024 37.6 22.024C37.12 21.992 36.592 21.976 36.016 21.976C35.152 21.976 34.208 22.04 33.184 22.168C32.192 22.264 31.248 22.504 30.352 22.888C29.488 23.24 28.784 23.8 28.24 24.568C28.048 24.792 27.872 24.904 27.712 24.904C27.584 24.904 27.488 24.824 27.424 24.664C27.36 24.504 27.376 24.328 27.472 24.136C28.24 22.44 29.296 21.288 30.64 20.68C31.984 20.072 33.488 19.768 35.152 19.768C35.856 19.768 36.56 19.816 37.264 19.912C38 19.976 38.72 20.072 39.424 20.2C40 18.824 40.64 17.448 41.344 16.072C42.048 14.696 42.736 13.416 43.408 12.232C44.08 11.048 44.688 10.056 45.232 9.256C45.776 8.424 46.16 7.88 46.384 7.624C44.336 6.6 42.224 5.656 40.048 4.792C37.872 3.928 35.6 3.336 33.232 3.016C32.752 2.952 32.272 2.904 31.792 2.872C31.312 2.84 30.848 2.824 30.4 2.824C28.288 2.824 26.4 3.16 24.736 3.832C23.072 4.504 21.664 5.368 20.512 6.424C19.36 7.448 18.48 8.552 17.872 9.736C17.264 10.888 16.96 11.976 16.96 13C16.96 14.344 17.44 15.304 18.4 15.88C18.976 16.232 19.552 16.488 20.128 16.648C20.736 16.808 21.312 16.888 21.856 16.888C23.072 16.888 24.176 16.632 25.168 16.12C26.16 15.608 26.944 15.048 27.52 14.44C28.128 13.8 28.432 13.32 28.432 13C28.432 12.68 28.528 12.408 28.72 12.184C28.912 11.928 29.072 11.8 29.2 11.8C29.328 11.8 29.392 11.912 29.392 12.136C29.392 12.296 29.344 12.52 29.248 12.808C28.768 14.472 27.792 15.752 26.32 16.648C24.88 17.512 23.36 17.944 21.76 17.944C21.088 17.944 20.416 17.864 19.744 17.704C19.104 17.544 18.496 17.304 17.92 16.984C16.864 16.376 16.08 15.608 15.568 14.68C15.056 13.72 14.8 12.696 14.8 11.608C14.8 10.36 15.12 9.08 15.76 7.768C16.4 6.424 17.312 5.208 18.496 4.12C19.712 3 21.168 2.104 22.864 1.432C24.56 0.727999 26.48 0.375999 28.624 0.375999C30.256 0.375999 32.08 0.647999 34.096 1.192C36.752 1.896 39.2 2.776 41.44 3.832C43.68 4.856 45.536 5.832 47.008 6.76C47.232 6.504 47.6 6.168 48.112 5.752C48.624 5.336 49.28 5.128 50.08 5.128C50.368 5.128 50.704 5.176 51.088 5.272C51.376 5.368 51.584 5.528 51.712 5.752C51.872 5.976 51.952 6.2 51.952 6.424C51.952 6.712 51.856 6.856 51.664 6.856C51.536 6.856 51.344 6.712 51.088 6.424C50.864 6.328 50.624 6.28 50.368 6.28C49.952 6.28 49.552 6.392 49.168 6.616C48.784 6.84 48.448 7.08 48.16 7.336C48.736 7.624 49.488 7.96 50.416 8.344C51.376 8.728 52.432 9.112 53.584 9.496C54.736 9.88 55.888 10.2 57.04 10.456C58.224 10.68 59.312 10.792 60.304 10.792C61.136 10.792 61.888 10.68 62.56 10.456C63.232 10.232 63.712 9.816 64 9.208C64.256 8.6 64.496 8.296 64.72 8.296C64.88 8.296 64.96 8.472 64.96 8.824C64.96 8.92 64.96 9.016 64.96 9.112C64.96 9.208 64.944 9.304 64.912 9.4C64.784 10.264 64.256 11 63.328 11.608C62.4 12.184 61.28 12.472 59.968 12.472C59.776 12.472 59.568 12.472 59.344 12.472C59.152 12.44 58.944 12.408 58.72 12.376C56.864 12.056 55.136 11.592 53.536 10.984C51.936 10.376 50.592 9.8 49.504 9.256C48.448 8.712 47.76 8.376 47.44 8.248C46.416 9.4 45.504 10.744 44.704 12.28C43.904 13.816 43.2 15.336 42.592 16.84C42.016 18.344 41.488 19.624 41.008 20.68C42 20.808 43.072 20.904 44.224 20.968C45.408 21 46.512 21.016 47.536 21.016C48.048 21.016 48.512 21.016 48.928 21.016C49.376 20.984 49.76 20.968 50.08 20.968H50.368C51.008 20.968 51.328 21.08 51.328 21.304C51.328 21.528 50.96 21.736 50.224 21.928C49.744 22.056 48.928 22.152 47.776 22.216C46.656 22.28 45.488 22.312 44.272 22.312C43.536 22.312 42.832 22.296 42.16 22.264C41.488 22.232 40.912 22.184 40.432 22.12C39.76 23.944 38.992 25.832 38.128 27.784C37.264 29.736 36.208 31.64 34.96 33.496C33.744 35.32 32.272 36.968 30.544 38.44C28.848 39.944 26.832 41.128 24.496 41.992C22.16 42.856 19.44 43.288 16.336 43.288Z" fill="#9E1899"/>
</svg>
