<svg width="699" height="460" viewBox="0 0 699 460" fill="none" xmlns="http://www.w3.org/2000/svg">
<path d="M245.829 52.6027C230.209 30.5156 246.004 0 273.056 0H425.44C452.708 0 468.45 30.9484 452.391 52.9867L375.059 159.111C361.623 177.549 334.054 177.354 320.881 158.727L245.829 52.6027Z" fill="#BFBEBD" fill-opacity="0.4"/>
<path d="M342.015 384.719V348.447V272.441C342.015 264.512 344.698 256.817 349.626 250.606L525.206 29.3625C531.869 20.9668 542.001 16.0728 552.719 16.0728H625.592C655.101 16.0728 671.457 50.2562 652.943 73.2344L354.919 443.118C350.624 448.448 342.015 445.411 342.015 438.566V438.566V419.869V384.719Z" fill="#BFBEBD" fill-opacity="0.4"/>
<path d="M354.463 384.719V348.446V272.558C354.463 264.557 351.732 256.797 346.721 250.559L168.693 28.9666C161.702 20.2644 150.99 15.4035 139.837 15.8719L69.8005 18.8134C40.9534 20.025 25.8075 53.5903 43.9861 76.0216L341.514 443.154C345.837 448.488 354.463 445.432 354.463 438.566V438.566V419.869V384.719Z" fill="#BFBEBD" fill-opacity="0.4"/>
<path d="M347 378.346V347.776V283.889C347 277.095 349.286 270.5 353.491 265.164L533.098 37.2239C538.835 29.9433 547.593 25.6943 556.862 25.6943H622.067C647.569 25.6943 661.63 55.309 645.512 75.0709L357.955 427.628C354.286 432.127 347 429.533 347 423.727V423.727V407.97V378.346Z" fill="url(#paint0_linear_294_6)" fill-opacity="0.5"/>
<path d="M346.785 378.346V347.776V283.889C346.785 277.095 344.499 270.5 340.294 265.164L160.687 37.2239C154.95 29.9433 146.192 25.6943 136.923 25.6943H71.7181C46.2164 25.6943 32.1548 55.309 48.2732 75.0709L335.83 427.628C339.499 432.127 346.785 429.533 346.785 423.727V423.727V407.97V378.346Z" fill="url(#paint1_linear_294_6)" fill-opacity="0.5"/>
<path d="M256.841 54.6467C242.68 34.6072 257.011 6.93311 281.549 6.93311H416.423C441.157 6.93311 455.44 34.9997 440.881 54.9951L372.435 149.003C360.246 165.745 335.219 165.567 323.269 148.655L256.841 54.6467Z" fill="url(#paint2_linear_294_6)" fill-opacity="0.5"/>
<defs>
<linearGradient id="paint0_linear_294_6" x1="293.425" y1="-38.2809" x2="491.023" y2="376.77" gradientUnits="userSpaceOnUse">
<stop stop-color="#754934"/>
<stop offset="0.125" stop-color="#8F634B"/>
<stop offset="0.35439" stop-color="#9B694D"/>
<stop offset="0.482819" stop-color="#C3A17E"/>
<stop offset="0.651042" stop-color="#9B694D"/>
<stop offset="1" stop-color="#AD7E63"/>
</linearGradient>
<linearGradient id="paint1_linear_294_6" x1="9.26084" y1="-74.8381" x2="302.664" y2="557.035" gradientUnits="userSpaceOnUse">
<stop offset="0.395833" stop-color="#9B694D"/>
<stop offset="0.515625" stop-color="#C3A17E"/>
<stop offset="0.635417" stop-color="#9B694D"/>
<stop offset="0.890625" stop-color="#AD7E63"/>
<stop offset="1" stop-color="#AD7E63"/>
</linearGradient>
<linearGradient id="paint2_linear_294_6" x1="385.742" y1="75.0052" x2="444.045" y2="252.119" gradientUnits="userSpaceOnUse">
<stop stop-color="#9B694D"/>
<stop offset="0.5625" stop-color="#C3A17E"/>
<stop offset="1" stop-color="#9B694D"/>
</linearGradient>
</defs>
</svg>
