<svg width="903" height="651" viewBox="0 0 903 651" fill="none" xmlns="http://www.w3.org/2000/svg">
<g clip-path="url(#clip0_279_35)">
<mask id="path-1-inside-1_279_35" fill="white">
<path fill-rule="evenodd" clip-rule="evenodd" d="M442.533 645.384C698.248 641.549 904.885 534.266 898.793 405.068C892.701 275.87 698.589 170.245 442.874 174.079C284.806 159.533 50.9532 244.091 41.0631 385.333C12.2854 523.493 186.818 649.218 442.533 645.384ZM447.212 462.79C646.013 459.809 806.75 413.592 805.483 329.134C804.217 244.675 642.031 178.625 443.23 181.606C244.43 184.587 84.2975 255.471 85.564 339.929C86.8305 424.387 248.412 465.771 447.212 462.79Z"/>
</mask>
<path fill-rule="evenodd" clip-rule="evenodd" d="M442.533 645.384C698.248 641.549 904.885 534.266 898.793 405.068C892.701 275.87 698.589 170.245 442.874 174.079C284.806 159.533 50.9532 244.091 41.0631 385.333C12.2854 523.493 186.818 649.218 442.533 645.384ZM447.212 462.79C646.013 459.809 806.75 413.592 805.483 329.134C804.217 244.675 642.031 178.625 443.23 181.606C244.43 184.587 84.2975 255.471 85.564 339.929C86.8305 424.387 248.412 465.771 447.212 462.79Z" fill="#FFAF13"/>
<path d="M898.793 405.068L893.799 405.304L893.799 405.304L898.793 405.068ZM442.533 645.384L442.458 640.384L442.458 640.384L442.533 645.384ZM442.874 174.079L442.415 179.058L442.681 179.083L442.949 179.079L442.874 174.079ZM41.0631 385.333L45.958 386.353L46.0272 386.021L46.0509 385.682L41.0631 385.333ZM805.483 329.134L810.483 329.059L810.483 329.059L805.483 329.134ZM447.212 462.79L447.137 457.79L447.137 457.79L447.212 462.79ZM443.23 181.606L443.305 186.605L443.305 186.605L443.23 181.606ZM85.564 339.929L90.5635 339.854L90.5635 339.854L85.564 339.929ZM893.799 405.304C896.704 466.909 848.845 524.641 766.519 567.809C684.491 610.821 569.709 638.476 442.458 640.384L442.608 650.383C571.073 648.457 687.466 620.553 771.163 576.665C854.561 532.934 906.975 472.426 903.788 404.833L893.799 405.304ZM442.949 179.079C570.158 177.171 681.765 202.504 762.143 244.127C842.704 285.845 890.875 343.302 893.799 405.304L903.788 404.833C900.619 337.637 848.688 277.682 766.741 235.247C684.611 192.716 571.304 167.153 442.799 169.08L442.949 179.079ZM46.0509 385.682C50.7986 317.879 109.524 262.576 188.511 225.819C267.223 189.19 364.32 171.872 442.415 179.058L443.332 169.1C363.359 161.741 264.496 179.429 184.292 216.752C104.363 253.948 41.2177 311.544 36.0753 384.984L46.0509 385.682ZM442.458 640.384C315.362 642.29 208.862 611.981 137.896 564.452C66.9121 516.911 32.1285 452.747 45.958 386.353L36.1681 384.314C21.2199 456.079 59.3141 523.858 132.331 572.761C205.366 621.675 313.99 652.312 442.608 650.383L442.458 640.384ZM800.484 329.208C800.773 348.525 791.868 365.959 774.642 381.519C757.334 397.153 731.84 410.665 699.735 421.791C635.556 444.034 546.26 456.304 447.137 457.79L447.287 467.789C546.965 466.294 637.437 453.966 703.01 431.24C735.781 419.882 762.659 405.818 781.345 388.939C800.114 371.986 810.826 351.971 810.483 329.059L800.484 329.208ZM443.305 186.605C542.2 185.122 631.75 200.823 696.546 227.211C728.953 240.409 754.934 256.185 772.813 273.613C790.672 291.021 800.193 309.8 800.484 329.209L810.483 329.059C810.14 306.238 798.913 285.089 779.793 266.452C760.694 247.835 733.465 231.449 700.318 217.949C634.004 190.943 543.061 175.108 443.155 176.607L443.305 186.605ZM90.5635 339.854C90.2724 320.446 99.226 301.389 116.555 283.454C133.903 265.498 159.399 248.949 191.396 234.786C255.371 206.467 344.411 188.088 443.305 186.605L443.155 176.607C343.249 178.105 252.823 196.659 187.348 225.641C154.621 240.129 127.896 257.324 109.363 276.505C90.8104 295.708 80.2224 317.183 80.5646 340.004L90.5635 339.854ZM447.137 457.79C348.015 459.277 258.509 449.688 193.811 429.379C161.446 419.219 135.618 406.478 117.893 391.371C100.253 376.336 90.8532 359.176 90.5635 339.854L80.5646 340.004C80.9081 362.911 92.1811 382.596 111.406 398.981C130.546 415.295 157.776 428.548 190.816 438.92C256.925 459.672 347.61 469.284 447.287 467.789L447.137 457.79Z" fill="#A56D00" mask="url(#path-1-inside-1_279_35)"/>
<path d="M806.438 327.974C786.422 440.338 773.655 325.648 479.805 269.29C227.251 220.853 28.5539 489.974 95.62 296.447C134.616 240.217 291.501 171.059 490.448 181.353C684.245 191.381 795.054 247.111 806.438 327.974Z" fill="#D0931D"/>
<mask id="path-4-inside-2_279_35" fill="white">
<path fill-rule="evenodd" clip-rule="evenodd" d="M392.185 497.897C638.183 567.823 866.954 524.553 898.305 399.069C929.656 273.584 774.157 116.56 528.159 46.6335C380.966 -12.7915 132.672 0.881802 82.5484 133.301C15.2238 257.333 146.186 427.971 392.185 497.897ZM449.219 324.376C640.465 378.739 807.702 380.74 830.798 299.491C853.893 218.242 717.58 108.307 526.334 53.9443C335.088 -0.418375 161.33 21.3774 138.234 102.626C115.139 183.875 257.973 270.013 449.219 324.376Z"/>
</mask>
<path fill-rule="evenodd" clip-rule="evenodd" d="M392.185 497.897C638.183 567.823 866.954 524.553 898.305 399.069C929.656 273.584 774.157 116.56 528.159 46.6335C380.966 -12.7915 132.672 0.881802 82.5484 133.301C15.2238 257.333 146.186 427.971 392.185 497.897ZM449.219 324.376C640.465 378.739 807.702 380.74 830.798 299.491C853.893 218.242 717.58 108.307 526.334 53.9443C335.088 -0.418375 161.33 21.3774 138.234 102.626C115.139 183.875 257.973 270.013 449.219 324.376Z" fill="#FFAF13"/>
<path d="M898.305 399.069L893.454 397.857L893.454 397.857L898.305 399.069ZM392.185 497.897L393.552 493.088L393.552 493.088L392.185 497.897ZM528.159 46.6335L526.287 51.2699L526.535 51.3699L526.792 51.443L528.159 46.6335ZM82.5484 133.301L86.9427 135.686L87.1045 135.388L87.2246 135.071L82.5484 133.301ZM830.798 299.491L835.607 300.858L835.607 300.858L830.798 299.491ZM449.219 324.376L450.586 319.567L450.586 319.567L449.219 324.376ZM526.334 53.9443L524.967 58.7538L524.967 58.7538L526.334 53.9443ZM138.234 102.626L143.044 103.994L143.044 103.994L138.234 102.626ZM893.454 397.857C878.505 457.691 816.055 499.206 724.788 516.853C633.852 534.436 515.967 527.885 393.552 493.088L390.817 502.707C514.401 537.836 633.9 544.612 726.687 526.671C819.142 508.794 886.753 465.931 903.155 400.281L893.454 397.857ZM526.792 51.443C649.167 86.2289 748.761 142.611 813.758 205.607C878.903 268.746 908.499 337.637 893.454 397.857L903.155 400.281C919.461 335.016 886.983 262.652 820.717 198.426C754.303 134.057 653.148 76.9644 529.526 41.8241L526.792 51.443ZM87.2246 135.071C111.286 71.5036 183.444 35.4425 269.668 22.9742C355.591 10.5494 453.565 21.9104 526.287 51.2699L530.03 41.9971C455.56 11.9316 355.789 0.416735 268.237 13.0772C180.985 25.6942 103.934 62.6794 77.8722 131.531L87.2246 135.071ZM393.552 493.088C271.284 458.332 178.014 398.654 123.731 332.711C69.4335 266.751 54.5891 195.291 86.9427 135.686L78.154 130.916C43.1831 195.343 60.1576 271.217 116.01 339.066C171.876 406.932 267.086 467.535 390.817 502.707L393.552 493.088ZM825.988 298.124C820.706 316.707 807.16 330.84 786.185 340.783C765.109 350.774 736.805 356.377 702.857 357.792C634.991 360.622 545.942 346.672 450.586 319.567L447.852 329.186C543.742 356.443 633.934 370.675 703.273 367.784C737.927 366.339 767.715 360.605 790.469 349.819C813.322 338.985 829.342 322.9 835.607 300.858L825.988 298.124ZM524.967 58.7538C620.103 85.7968 701.346 126.607 755.805 170.527C783.043 192.494 803.383 215.08 815.49 236.917C827.583 258.728 831.296 279.453 825.988 298.124L835.607 300.858C841.848 278.904 837.183 255.419 824.236 232.068C811.303 208.741 789.943 185.212 762.083 162.743C706.348 117.793 623.811 76.4545 527.701 49.1348L524.967 58.7538ZM143.044 103.994C148.351 85.3227 162.411 69.6494 184.168 57.4602C205.951 45.2571 235.13 36.7472 269.85 32.3921C339.269 23.6844 429.831 31.7108 524.967 58.7538L527.701 49.1348C431.591 21.8151 339.651 13.5581 268.605 22.4698C233.093 26.9244 202.55 35.7 179.281 48.736C155.986 61.7861 139.665 79.3056 133.425 101.259L143.044 103.994ZM450.586 319.567C355.23 292.461 272.271 257.517 216.156 219.446C188.085 200.402 167.017 180.766 154.39 161.196C141.823 141.721 137.76 122.581 143.044 103.994L133.425 101.259C127.161 123.296 132.291 145.392 145.987 166.618C159.622 187.749 181.885 208.28 210.541 227.721C267.88 266.622 351.961 301.928 447.852 329.186L450.586 319.567Z" fill="#A56D00" mask="url(#path-4-inside-2_279_35)"/>
<path d="M832.046 298.656C780.537 400.504 801.32 286.992 536.124 148.445C308.197 29.3684 40.4509 229.914 160.379 63.8786C213.909 21.2514 384.061 0.173307 571.626 67.2917C754.336 132.673 844.417 217.937 832.046 298.656Z" fill="#D0931D"/>
</g>
<defs>
<clipPath id="clip0_279_35">
<rect width="903" height="651" fill="white"/>
</clipPath>
</defs>
</svg>
