<svg width="661" height="524" viewBox="0 0 661 524" fill="none" xmlns="http://www.w3.org/2000/svg">
<path d="M264.389 444.352L251.158 373.744C250.13 368.257 248.587 364.81 246.53 363.402C244.761 361.939 240.989 361.75 235.214 362.832L122.154 384.018C99.3396 388.293 85.795 379.023 81.52 356.209L66.9092 278.237C62.6342 255.422 71.9037 241.878 94.7178 237.603L269.289 204.891C292.103 200.616 305.648 209.885 309.923 232.7L319.339 282.948L235.735 298.614L227.212 253.131C226.13 247.355 224.587 243.907 222.584 242.788C220.526 241.38 216.754 241.19 211.267 242.218L162.318 251.391C156.542 252.473 152.95 254.043 151.542 256.1C150.369 257.815 150.323 261.56 151.406 267.336L164.231 335.778C165.313 341.554 166.738 345.173 168.507 346.635C170.51 347.754 174.4 347.772 180.176 346.69L293.235 325.504C316.05 321.229 329.594 330.499 333.869 353.313L348.886 433.451C353.161 456.265 343.891 469.81 321.077 474.085L146.506 506.797C123.692 511.072 110.147 501.802 105.872 478.988L96.4563 428.739L180.06 413.073L188.583 458.557C189.665 464.333 191.235 467.925 193.292 469.333C195.296 470.452 199.041 470.498 204.528 469.47L253.477 460.297C259.253 459.215 262.727 457.817 263.901 456.102C265.309 454.045 265.472 450.128 264.389 444.352Z" fill="#1BBAB8"/>
<rect x="111.361" y="60.8527" width="79.2923" height="86.1786" rx="8.65813" transform="rotate(-10.6133 111.361 60.8527)" stroke="#1BBAB8" stroke-width="17.1149"/>
<line x1="123.116" y1="40.4361" x2="209.383" y2="500.806" stroke="#1BBAB8" stroke-width="16.4345"/>
<line x1="171.577" y1="31.3552" x2="257.844" y2="491.725" stroke="#1BBAB8" stroke-width="16.4345"/>
<line x1="147.347" y1="35.8961" x2="233.613" y2="496.266" stroke="#1BBAB8" stroke-width="16.4345"/>
<path d="M395.803 395.825L464.784 395.976C470.145 395.988 473.673 395.149 475.37 393.46C477.066 392.053 477.92 388.528 477.932 382.886L478.174 272.431C478.223 250.143 489.392 239.023 511.68 239.072L587.856 239.239C610.144 239.288 621.264 250.457 621.215 272.745L620.841 443.293C620.792 465.582 609.623 476.702 587.335 476.653L538.244 476.545L538.423 394.868L582.859 394.965C588.502 394.978 592.03 394.139 593.444 392.449C595.141 390.76 595.995 387.236 596.007 381.875L596.112 334.054C596.124 328.411 595.286 324.742 593.597 323.045C592.189 321.631 588.664 320.918 583.021 320.906L516.156 320.759C510.514 320.747 506.844 321.444 505.149 322.851C503.734 324.541 503.021 328.207 503.008 333.85L502.766 444.304C502.717 466.592 491.549 477.712 469.26 477.663L390.969 477.492C368.681 477.443 357.561 466.274 357.61 443.986L357.984 273.437C358.033 251.149 369.201 240.029 391.49 240.078L440.58 240.186L440.401 321.863L395.966 321.765C390.323 321.753 386.653 322.591 384.957 324.28C383.543 325.97 382.829 329.495 382.818 334.856L382.713 382.677C382.7 388.32 383.398 391.848 384.806 393.261C386.495 394.958 390.161 395.812 395.803 395.825Z" fill="#1BBAB8"/>
<rect x="298.115" y="101.676" width="12.5603" height="137.501" rx="6.28015" transform="rotate(-43.7798 298.115 101.676)" fill="white" stroke="#1BBAB8" stroke-width="12.5603"/>
<rect x="646.906" y="107.583" width="10.8347" height="129.063" rx="5.41736" transform="rotate(53.4963 646.906 107.583)" fill="white" stroke="#1BBAB8" stroke-width="10.8347"/>
<rect x="589.961" y="191.874" width="2.09421" height="24.9461" rx="1.0471" transform="rotate(53.4963 589.961 191.874)" fill="white" stroke="#1BBAB8" stroke-width="2.09421"/>
<rect x="495.96" y="193.164" width="2.09421" height="24.9461" rx="1.0471" transform="rotate(-37.8734 495.96 193.164)" fill="white" stroke="#1BBAB8" stroke-width="2.09421"/>
<rect x="457.699" y="191.884" width="2.09421" height="24.9461" rx="1.0471" transform="rotate(50.5275 457.699 191.884)" fill="white" stroke="#1BBAB8" stroke-width="2.09421"/>
<rect x="364.48" y="201.771" width="2.09421" height="24.9461" rx="1.0471" transform="rotate(-53.2518 364.48 201.771)" fill="white" stroke="#1BBAB8" stroke-width="2.09421"/>
<rect x="420.414" y="167.051" width="2.09421" height="24.9461" rx="1.0471" transform="rotate(15.8282 420.414 167.051)" fill="white" stroke="#1BBAB8" stroke-width="2.09421"/>
<rect x="395.895" y="190.398" width="24.6517" height="24.6517" rx="12.3259" fill="#1BBAB8" stroke="#1BBAB8" stroke-width="16.4345"/>
<rect x="527.372" y="182.181" width="24.6517" height="24.6517" rx="12.3259" fill="#1BBAB8" stroke="#1BBAB8" stroke-width="16.4345"/>
</svg>
