<svg width="194" height="186" viewBox="0 0 194 186" fill="none" xmlns="http://www.w3.org/2000/svg">
<g clip-path="url(#clip0_302_30)">
<rect width="194" height="186" fill="white"/>
<path d="M83.065 10.1266C87.4756 -3.44779 106.68 -3.44781 111.09 10.1266L123.872 49.4646C125.845 55.5353 131.502 59.6454 137.885 59.6454L179.247 59.6454C193.52 59.6454 199.455 77.9097 187.907 86.2991L154.445 110.611C149.281 114.363 147.12 121.014 149.092 127.084L161.874 166.422C166.284 179.997 150.748 191.285 139.201 182.895L105.738 158.583C100.574 154.831 93.5814 154.831 88.4174 158.583L54.9545 182.895C43.4074 191.285 27.8709 179.997 32.2815 166.422L45.0632 127.084C47.0357 121.014 44.8748 114.363 39.7108 110.611L6.24795 86.2991C-5.29914 77.9097 0.635245 59.6454 14.9082 59.6454L56.2706 59.6454C62.6537 59.6454 68.3108 55.5353 70.2833 49.4646L83.065 10.1266Z" fill="#FAAC28"/>
</g>
<defs>
<clipPath id="clip0_302_30">
<rect width="194" height="186" fill="white"/>
</clipPath>
</defs>
</svg>
